<svg width="48" height="45" viewBox="0 0 48 45" fill="none" xmlns="http://www.w3.org/2000/svg">
<path d="M0.142456 21.5594C0.142456 11.5361 0.142456 6.52452 3.50657 3.4107C6.87069 0.296875 12.2852 0.296875 23.1141 0.296875H25.0284C35.8573 0.296875 41.2718 0.296875 44.6359 3.4107C48 6.52452 48 11.5361 48 21.5594V23.3312C48 33.3545 48 38.3661 44.6359 41.4799C41.2718 44.5938 35.8573 44.5938 25.0284 44.5938H23.1141C12.2852 44.5938 6.87069 44.5938 3.50657 41.4799C0.142456 38.3661 0.142456 33.3545 0.142456 23.3312V21.5594Z" fill="#F2F2F2"/>
<path d="M25.6917 32.3198C14.9139 32.3198 8.37498 25.3856 8.11877 13.8628H13.5774C13.7476 22.3271 17.9004 25.9139 21.0838 26.6515V13.8628H26.315V21.1676C29.3856 20.852 32.5996 17.5294 33.6799 13.8628H38.8288C38.0048 18.3716 34.5059 21.6942 32.0337 23.0647C34.5078 24.1728 38.4885 27.0735 40.0238 32.3198H34.3644C33.1694 28.8128 30.2422 26.0966 26.3169 25.7278V32.3198H25.6917Z" fill="#28376E"/>
</svg>
